<svg width="27" height="27" viewBox="0 0 27 27" fill="none" xmlns="http://www.w3.org/2000/svg">
<path d="M8.03125 13.875C8.03125 13.6015 7.9226 13.3392 7.7292 13.1458C7.53581 12.9524 7.2735 12.8438 7 12.8438C6.7265 12.8438 6.46419 12.9524 6.2708 13.1458C6.0774 13.3392 5.96875 13.6015 5.96875 13.875V19.375C5.96875 19.6485 6.0774 19.9108 6.2708 20.1042C6.46419 20.2976 6.7265 20.4062 7 20.4062C7.2735 20.4062 7.53581 20.2976 7.7292 20.1042C7.9226 19.9108 8.03125 19.6485 8.03125 19.375V13.875ZM18 12.8438C18.2735 12.8438 18.5358 12.9524 18.7292 13.1458C18.9226 13.3392 19.0312 13.6015 19.0312 13.875V19.375C19.0312 19.6485 18.9226 19.9108 18.7292 20.1042C18.5358 20.2976 18.2735 20.4062 18 20.4062C17.7265 20.4062 17.4642 20.2976 17.2708 20.1042C17.0774 19.9108 16.9688 19.6485 16.9688 19.375V13.875C16.9688 13.6015 17.0774 13.3392 17.2708 13.1458C17.4642 12.9524 17.7265 12.8438 18 12.8438ZM13.5312 13.875C13.5312 13.6015 13.4226 13.3392 13.2292 13.1458C13.0358 12.9524 12.7735 12.8438 12.5 12.8438C12.2265 12.8438 11.9642 12.9524 11.7708 13.1458C11.5774 13.3392 11.4688 13.6015 11.4688 13.875V19.375C11.4688 19.6485 11.5774 19.9108 11.7708 20.1042C11.9642 20.2976 12.2265 20.4062 12.5 20.4062C12.7735 20.4062 13.0358 20.2976 13.2292 20.1042C13.4226 19.9108 13.5312 19.6485 13.5312 19.375V13.875Z" fill="#2A1E1B"/>
<path fill-rule="evenodd" clip-rule="evenodd" d="M20.6897 1.68163C20.0352 1.42588 19.3023 1.38325 18.3632 1.37638C18.1682 0.964524 17.8602 0.616523 17.4751 0.372862C17.09 0.129202 16.6437 -0.000100534 16.188 2.91398e-07H10.688C10.2324 -0.000223858 9.78617 0.128874 9.4011 0.372281C9.01603 0.615689 8.70796 0.963406 8.51272 1.375C7.57222 1.38325 6.84072 1.42588 6.18622 1.68163C5.40491 1.98725 4.72541 2.50664 4.22547 3.18038C3.72085 3.85825 3.48297 4.73 3.15847 5.92762L2.29497 9.09425C1.75407 9.36716 1.27992 9.75587 0.906224 10.2328C0.0509745 11.3286 -0.100275 12.6335 0.0523497 14.1295C0.199475 15.5815 0.65735 17.4102 1.22935 19.6982L1.2651 19.8454C1.6281 21.2919 1.92097 22.4675 2.27022 23.3846C2.6346 24.3416 3.09797 25.1254 3.85972 25.7207C4.62285 26.3161 5.49597 26.5733 6.5121 26.697C7.4856 26.8125 8.69835 26.8125 10.1902 26.8125H16.6857C18.1776 26.8125 19.389 26.8125 20.3638 26.6956C21.3813 26.5746 22.2531 26.3161 23.0149 25.7194C23.778 25.1254 24.24 24.3416 24.6044 23.3846C24.955 22.4675 25.2478 21.2919 25.6095 19.844L25.6466 19.6996C26.2186 17.4103 26.6751 15.5815 26.8236 14.1309C26.9749 12.6321 26.8236 11.3286 25.9684 10.2328C25.5951 9.75603 25.1214 9.36733 24.581 9.09425L23.7175 5.92762C23.3916 4.73 23.1537 3.85825 22.6505 3.179C22.1504 2.50577 21.4709 1.98687 20.6897 1.68163ZM6.93697 3.6025C7.23947 3.48425 7.60522 3.44988 8.5141 3.44025C8.90185 4.2515 9.7296 4.8125 10.6866 4.8125H16.1866C17.1463 4.8125 17.9741 4.2515 18.3619 3.44025C19.2707 3.44988 19.6365 3.48425 19.939 3.6025C20.3597 3.7675 20.7255 4.04663 20.995 4.40963C21.237 4.7355 21.3786 5.19063 21.7787 6.65775L22.2655 8.44112C20.8382 8.25 18.9957 8.25 16.7063 8.25H10.1682C7.88022 8.25 6.03772 8.25 4.61047 8.44112L5.09722 6.65775C5.49597 5.19063 5.63897 4.7355 5.88097 4.40963C6.15022 4.04677 6.51618 3.76706 6.93697 3.6025ZM10.688 2.0625C10.5968 2.0625 10.5094 2.09872 10.4449 2.16318C10.3804 2.22765 10.3442 2.31508 10.3442 2.40625C10.3442 2.49742 10.3804 2.58485 10.4449 2.64932C10.5094 2.71378 10.5968 2.75 10.688 2.75H16.188C16.2791 2.75 16.3666 2.71378 16.431 2.64932C16.4955 2.58485 16.5317 2.49742 16.5317 2.40625C16.5317 2.31508 16.4955 2.22765 16.431 2.16318C16.3666 2.09872 16.2791 2.0625 16.188 2.0625H10.688ZM2.53285 11.5019C2.91647 11.011 3.52285 10.681 4.7741 10.4995C6.05422 10.3152 7.78948 10.3125 10.2549 10.3125H16.6211C19.0865 10.3125 20.8204 10.3152 22.1005 10.4995C23.3531 10.681 23.9595 11.011 24.3431 11.5033C24.7267 11.9941 24.9 12.661 24.7707 13.9205C24.6401 15.2075 24.2221 16.8905 23.624 19.283C23.2431 20.8065 22.9777 21.8625 22.678 22.6518C22.3865 23.4135 22.1018 23.8164 21.7457 24.0955C21.3896 24.3733 20.929 24.5506 20.1191 24.6483C19.2803 24.7486 18.1941 24.75 16.6211 24.75H10.2549C8.68185 24.75 7.59422 24.7486 6.75685 24.6483C5.9456 24.552 5.48635 24.3733 5.13022 24.0955C4.77272 23.8164 4.4881 23.4135 4.19798 22.6518C3.89823 21.8625 3.63285 20.8065 3.2506 19.283C2.65385 16.8905 2.23447 15.2075 2.10385 13.9205C1.97597 12.661 2.14922 11.9927 2.53285 11.5019Z" fill="#2A1E1B"/>
</svg>
