<svg width="48" height="48" viewBox="0 0 48 48" fill="none" xmlns="http://www.w3.org/2000/svg">
<path d="M26.0037 16.7797C26.0037 15.6934 26.9721 15.3031 28.0563 15.3031C29.1405 15.3031 30.2984 15.6406 30.2984 15.6406L30.9932 11.5062C30.9932 11.5062 29.5195 11 26.0037 11C23.8458 11 22.5932 11.8227 21.6774 13.0355C20.8142 14.1852 20.7826 16.0309 20.7826 17.2227V19.9332H17.9932V23.9727H20.7826V38H26.0037V23.9727H30.1405L30.4458 19.9332H26.0037V16.7797Z" fill="#2A1E1B"/>
<path d="M23.9961 1.5C36.4272 1.5 46.4932 11.5287 46.4932 23.8848C46.4931 36.2408 36.4271 46.2695 23.9961 46.2695C11.5652 46.2693 1.50008 36.2406 1.5 23.8848C1.5 11.5288 11.5652 1.50021 23.9961 1.5Z" stroke="#2A1E1B" stroke-width="3"/>
</svg>
