<svg width="549" height="570" viewBox="0 0 549 570" fill="none" xmlns="http://www.w3.org/2000/svg">
<path fill-rule="evenodd" clip-rule="evenodd" d="M0 0H549V570H0V0ZM369.193 251.696C387.965 251.574 407.021 256.239 424.506 266.198C477.544 296.407 496.05 363.892 465.841 416.93C435.632 469.968 368.147 488.474 315.109 458.265C297.624 448.306 283.892 434.295 274.421 418.087C265.14 434.405 251.573 448.575 234.205 458.738C181.525 489.566 113.828 471.851 83 419.17C52.1724 366.489 69.8878 298.792 122.569 267.965C139.936 257.801 158.936 252.914 177.708 252.817C168.216 236.62 162.728 217.786 162.611 197.663C162.253 136.627 211.444 86.8571 272.481 86.5C333.517 86.1429 383.287 135.333 383.644 196.37C383.762 216.492 378.494 235.39 369.193 251.696Z" fill="#FF672D"/>
</svg>
