<svg width="508" height="528" viewBox="0 0 508 528" fill="none" xmlns="http://www.w3.org/2000/svg">
<path fill-rule="evenodd" clip-rule="evenodd" d="M0 0H507.5V527.5H0V0ZM254.001 449.552C289.016 449.552 318.663 426.53 328.675 394.776C361.168 401.986 395.937 387.788 413.461 357.416C430.981 327.051 425.892 289.833 403.42 265.28C425.892 240.727 430.981 203.508 413.461 173.143C395.938 142.771 361.169 128.573 328.677 135.783C318.667 104.025 289.019 81 254.001 81C218.98 81 189.329 104.029 179.322 135.791C146.819 128.562 112.031 142.76 94.5 173.143C76.9803 203.508 82.0698 240.726 104.542 265.28C82.0698 289.833 76.9804 327.051 94.5001 357.416C112.031 387.8 146.821 401.997 179.324 394.768C189.334 426.526 218.982 449.552 254.001 449.552Z" fill="#0592C1"/>
</svg>
