<svg width="6250" height="2192" viewBox="0 0 6250 2192" fill="none" xmlns="http://www.w3.org/2000/svg">
<path d="M5149.8 529.118C5172.23 488.528 5185.17 428.555 5202.89 383.842C5250.93 261.076 5325.43 89.4393 5462.37 48.4901C5625.4 -0.249781 5742.52 140.585 5727.45 295.98C5705.28 524.251 5663.18 772.074 5604.42 994.552C5581.13 1082.73 5509.41 1228.94 5414.27 1254.59C5255.41 1295.12 5244.94 1108.36 5243.11 1005.66C5239.85 989.076 5243.14 964.171 5234.89 952.02C5234.46 953.534 5234.04 955.065 5233.6 956.612C5199.54 1078.26 5136.63 1302.95 4970.11 1252.62C4838.72 1212.9 4861.25 989.377 4869.53 885.032C4844.35 981.47 4782.82 1187.9 4695.45 1239.72C4666.68 1256.67 4632.4 1261.6 4600 1253.43C4571.66 1245.97 4549.83 1226.91 4535.28 1201.85C4466.26 1082.92 4555.4 679.311 4592.21 543.685C4607.98 485.945 4625.52 428.698 4644.76 372.026C4683.57 258.265 4725.07 148.663 4835.37 86.4545C4891.75 54.6453 4970.24 34.9917 5034.56 51.6435C5078.71 63.071 5104.46 93.7697 5126.02 131.011C5179.21 222.986 5169.74 315.278 5161.94 416.869C5159.11 454.025 5158.2 492.577 5149.8 529.118Z" fill="#2A1E1B"/>
<path d="M916.695 43.6768C973.303 38.8274 1029.19 48.9604 1065.05 96.5637C1127.15 178.978 1082.49 337.653 1065.99 431.128L1017.91 700.685L980.966 905.028C954.339 1049.89 915.608 1296.08 716.103 1269.72C655.826 1261.76 605.931 1233.67 594.28 1170.3C572.92 1054.13 615.929 928.658 630.914 815.666L483.743 815.423C469.291 860.872 457.865 905.579 445.757 951.651C414.747 1069.67 388.163 1232.4 249.81 1266.27C74.5357 1291.89 36.8903 1147.37 58.8767 1007.83C95.1535 782.457 166.038 563.906 217.252 341.623C236.87 256.475 263.379 135.005 335.214 78.9646C369.367 52.2342 412.911 40.4918 455.886 46.4234C498.648 51.9607 538.826 77.0193 564.46 111.144C647.427 221.601 580.367 371.794 564.844 492.077C612.516 497.049 646.264 493.912 693.781 492.491C712.958 408.499 750.28 202.27 792.43 134.168C821.888 86.5743 861.871 56.7037 916.695 43.6768Z" fill="#2A1E1B"/>
<path d="M3939.79 43.9654C3948.71 43.7725 3972.48 46.8875 3981.28 49.1321C4156.37 93.7016 4083.88 320.277 4059.31 442.191C4043.63 519.931 4026.83 592.399 4013.92 669.948C4008.23 712.327 3992.06 774.688 4016.96 812.976C4040.92 849.845 4088.33 836.608 4106.71 801.107C4130.64 754.925 4140.9 701.35 4152.93 651.125L4228.46 326.991C4248.49 242.032 4263.99 120.635 4343.33 69.062C4373.98 49.4963 4411.1 42.7424 4446.72 50.2535C4653.1 94.3648 4539.18 487.704 4509.86 619.129C4461.24 824.725 4421.39 1097.12 4218.29 1212.59C4082.15 1290 3861.12 1268.65 3746.47 1159.95C3680.46 1097.38 3654.58 1013.28 3644.66 924.333C3640.52 885.094 3640.18 845.55 3643.62 806.243C3652.94 698.971 3681.83 572.329 3703.94 466.222C3724.88 376.964 3740.59 284.058 3773.74 198.238C3804.74 118.015 3848.79 54.1014 3939.79 43.9654Z" fill="#2A1E1B"/>
<path d="M1375.86 34.9804C1378.13 34.685 1380.4 34.4505 1382.68 34.2774C1492.02 26.0297 1623.47 34.2159 1733.39 49.1579C1846.8 64.5739 1889.2 211.529 1817.61 288.944C1752.3 359.583 1578.92 323.127 1485.05 328.026C1475.19 374.664 1463.92 424.023 1460.83 471.44C1524.94 476.195 1587.04 478.027 1651.04 480.278C1699.25 481.972 1755.1 485.468 1789.16 524.087C1839.56 581.285 1832.28 687.617 1774.62 737.493C1732.82 773.654 1681.35 780.986 1627.95 780.931C1553.42 780.855 1478.74 776.662 1404.27 772.914C1395.16 820.566 1382.62 870.721 1371.51 918.2C1442.74 925.754 1511.47 924.984 1583.56 934.345C1667.65 936.201 1748.8 991.985 1757.97 1079.01C1771.12 1203.62 1602.5 1261.21 1504.1 1263.06C1411.86 1264.8 1251.59 1280.15 1165.4 1259.3C1136.68 1252.41 1109.89 1239.09 1087.07 1220.35C1055.85 1194.89 1036.06 1158.06 1032.06 1117.98C1025.99 1051.74 1051.55 929.63 1063.98 859.714L1114.18 579.7L1151.95 367.725C1168.36 275.902 1182.42 165.944 1242.87 91.1235C1280.08 45.0636 1320.78 39.863 1375.86 34.9804Z" fill="#2A1E1B"/>
<path d="M3013.9 40.7994C3034.92 39.5755 3052.89 39.3494 3073.8 44.3978C3101.72 51.1092 3127.23 65.4195 3147.5 85.7409C3173.17 111.41 3257.8 262.868 3284.11 305.473C3377.39 208.149 3475.42 21.6052 3632.48 44.87C3742.69 61.1923 3755.75 204.626 3698.55 281.259C3617.75 390.889 3485.13 472.143 3404.76 578.66C3385.94 603.607 3360.37 781.877 3352.15 827.408C3338.72 909.493 3315.62 1117.12 3276.92 1176.18C3253.33 1212.17 3212.11 1247.53 3169.15 1256.22C3127.53 1264.65 3078.24 1254.89 3043.03 1231.14C2929.96 1154.86 2986.92 952.079 3009.32 843.392C3020.3 787.533 3030.95 731.603 3041.26 675.615C3047.51 642.18 3059.06 589.907 3054.71 557.008C3048.44 509.797 3003.9 455.349 2979.12 412.045C2944.1 351.898 2908.42 289.501 2894.31 220.562C2876.13 131.693 2924.15 57.5604 3013.9 40.7994Z" fill="#2A1E1B"/>
<path d="M2003.67 40.7912C2023.45 39.8213 2037.44 39.2825 2057.25 43.7784C2084.84 49.9917 2110.15 63.7725 2130.33 83.5715C2159.39 111.947 2241.16 259.459 2270.1 305.468C2337.22 233.298 2395 142.631 2473.33 82.8891C2562.71 14.7143 2701.31 27.5109 2713.91 161.262C2717.18 193.684 2711.26 226.374 2696.81 255.589C2642.15 363.667 2461.49 476.464 2392.26 574.657C2370.03 606.191 2347.93 769.511 2339.33 819.31C2320.37 916.987 2311.59 1016.84 2285.31 1113.13C2256.82 1217.54 2139.7 1298.37 2040.26 1223.95C1914.54 1126.84 1970.21 961.134 1997.16 831.714C2014.58 748.084 2041.03 633.209 2039.08 547.669C2038.34 514.781 1984.67 451.803 1967.03 420.893C1915.35 330.296 1829.01 197.749 1901.47 96.3541C1926.79 61.3314 1962.63 46.7538 2003.67 40.7912Z" fill="#2A1E1B"/>
<path d="M6040.17 43.4621C6221.74 20.0726 6207.95 226.609 6187.21 345.183C6156.74 519.422 6103.74 698.161 6004.18 846.017C5984.58 875.086 5966.89 900.839 5940.13 923.806C5809.25 1013.87 5799.57 864.654 5801.39 776.485C5803.49 580.305 5831.41 378.639 5893.49 192.161C5917.66 119.575 5964.67 63.7695 6040.17 43.4621Z" fill="#2A1E1B"/>
<path d="M5817.07 980.82C6008.38 970.583 6002.72 1222.82 5840.15 1263.2C5809.74 1264.48 5783.22 1259.02 5757.22 1242.36C5728.24 1223.62 5707.93 1194.11 5700.81 1160.37C5692.31 1121.2 5701.11 1078.34 5723.03 1044.95C5744.43 1011.75 5778.35 988.624 5817.07 980.82Z" fill="#2A1E1B"/>
<path fill-rule="evenodd" clip-rule="evenodd" d="M481.692 1684.32C461.035 1576.9 412.612 1507.73 296.45 1517.48C149.576 1548.06 77.5298 1696.38 56.4389 1833.93C37.2646 1958.98 97.8253 2131.15 249.386 2128.53C321.065 2116.08 360.168 2081.38 401.007 2022.44C466.398 1928.1 503.614 1798.32 481.692 1684.32ZM290.584 1673.91C336.784 1668.43 346.248 1704.48 346.483 1743.01C346.883 1809.39 316.717 1923.78 251.901 1953.99C154.535 1947.25 207.861 1720.62 290.584 1673.91Z" fill="#2A1E1B"/>
<path fill-rule="evenodd" clip-rule="evenodd" d="M908.718 1546.92C868.094 1523.45 768.176 1515.82 720.437 1517.88C691.014 1519.92 660.718 1525.22 640.606 1549.28C626.95 1565.62 618.38 1591.82 612.74 1612.08C596.827 1669.24 537.373 2010.59 543.432 2060.03C545.898 2080.17 560.389 2097.86 576.539 2109.16C593.854 2121.29 617.951 2130.3 639.338 2126.8C656.483 2123.99 669.516 2112.97 678.816 2098.75C699.891 2066.54 707.08 2021.7 713.53 1981.46C715.088 1971.74 716.603 1962.29 718.26 1953.35C728.523 1964.47 749.701 1995.73 767.774 2022.4C777.219 2036.34 785.816 2049.03 791.564 2056.94C792.937 2058.95 794.309 2060.97 795.686 2063C813.073 2088.64 831.312 2115.54 864.372 2121.65C883.561 2125.06 903.301 2120.27 918.803 2108.45C987.526 2055.56 906.589 1953.66 862.233 1897.81C858.149 1892.67 854.375 1887.92 851.057 1883.63C891.703 1874.21 926.224 1856.05 947.115 1819.01C991.779 1739.87 998.359 1598.71 908.718 1546.92ZM749.516 1629.74C833.431 1630.68 882.563 1710.55 807.593 1760.67C772.364 1770.65 754.693 1770.68 719.831 1759.62C722.044 1729.78 734.959 1652.79 749.516 1629.74Z" fill="#2A1E1B"/>
<path d="M1292.21 1511.91C1299.09 1511.28 1305.99 1510.85 1312.9 1510.62C1369.66 1509.11 1457.65 1538.09 1454.41 1610.78C1451.46 1677.46 1377.84 1654.31 1337.1 1663.21C1251.63 1681.9 1187.51 1784.33 1187.57 1868.62C1187.05 1928.17 1217.87 1979.19 1282.35 1977.23C1311.16 1976.36 1332.37 1963.17 1351.21 1942.84C1345.3 1942.36 1339.42 1941.67 1333.53 1940.8C1295.8 1935.46 1226.1 1921.7 1241.77 1868.97C1267.76 1781.5 1404.55 1812.19 1473.2 1808.72C1511.65 1806.79 1557.75 1814.17 1579.33 1847.57C1596.92 1906.25 1548.06 1926.79 1501.32 1939.73C1493.47 1977.86 1477.92 2013.99 1455.6 2045.89C1387.34 2144.69 1230.39 2161.75 1132.13 2097.55C1081.99 2059.93 1048.62 1981.79 1039.26 1923.31C1010.89 1746.22 1097.6 1541.83 1292.21 1511.91Z" fill="#2A1E1B"/>
<path fill-rule="evenodd" clip-rule="evenodd" d="M2066.78 1647.25C2048.18 1542.65 1962.88 1504.16 1865.77 1511.41C1809.63 1524.95 1773.85 1558.21 1744 1606.69C1722.34 1642.65 1704.78 1680.93 1691.65 1720.82C1671.82 1782.41 1626.92 2013.38 1640.52 2071.33C1646 2094.65 1656.63 2111.13 1677.14 2123.79C1692.32 2133.16 1707.3 2138.64 1725.04 2133.72C1758.48 2124.46 1781.59 2086.75 1796.67 2057.88C1823 2007.47 1844.44 1950.46 1862.96 1896.68L1873.52 1871.95C1873.81 1878.98 1874.02 1887.08 1874.24 1895.97C1876.37 1980.17 1880.29 2135.53 1976.98 2124.07C2038.13 2117.79 2048.28 2038.85 2055.34 1983.85C2056.2 1977.18 2057.02 1970.85 2057.87 1965.06C2072.94 1862.66 2085.1 1750.34 2066.78 1647.25ZM1891.06 1635.02C1959.25 1632.43 1944.16 1721.14 1936.08 1768.64C1935.65 1771.17 1935.23 1773.59 1934.86 1775.87C1921.99 1775.34 1909.09 1774.27 1896.23 1773.21C1893.45 1772.98 1890.65 1772.74 1887.87 1772.52C1885.09 1772.45 1882.19 1772.45 1879.26 1772.44C1855.47 1772.39 1828.66 1772.34 1831.12 1739.94C1834.23 1698.9 1855.12 1655.86 1891.06 1635.02Z" fill="#2A1E1B"/>
<path d="M2344.6 1920.88C2319.21 1971.96 2290.26 2111.91 2223.86 2124.64C2133.39 2141.97 2125.12 2000.92 2133.55 1940.69C2147.75 1832.31 2162.69 1766.94 2190.94 1657.83C2205.77 1600.53 2258.95 1473.22 2351.85 1527.92C2383.3 1546.44 2420.6 1697.14 2419.71 1739.85L2427.24 1755.74C2435.04 1685.2 2479.12 1465.47 2585.69 1540.04C2661.93 1593.36 2606.22 1836.44 2592.44 1917.36C2579.95 1990.64 2517.19 2200.94 2409.49 2108.48C2362.98 2068.55 2345.89 1979.39 2344.6 1920.88Z" fill="#2A1E1B"/>
<path d="M2814.89 1514.56C2946.08 1515.88 2908.36 1710.41 2897.93 1792.37C2885.46 1890.41 2880.39 1994.44 2841.21 2086.17C2830.61 2110.98 2802.71 2123.69 2778.6 2131.12C2700.62 2137.21 2679.19 2080.09 2681.12 2013.09C2684.16 1907.23 2706.02 1801.33 2716.47 1695.9C2721.28 1647.29 2726.07 1587.89 2754.24 1547.4C2770.25 1524.39 2788.69 1518.3 2814.89 1514.56Z" fill="#2A1E1B"/>
<path d="M3199.91 1518.42C3282.78 1506.34 3375.18 1553.67 3382 1645.2C3368.33 1679.72 3356.78 1686.23 3323.34 1697.73C3313.54 1696.01 3296.29 1691.98 3287.41 1688.56C3204.55 1656.58 3145.13 1686.57 3121.99 1772.39C3111.49 1817.13 3109.57 1870.64 3134.3 1910.23C3190.4 2000.02 3265.54 1914.82 3333.91 1928.21C3380.37 1937.3 3387.46 1984.99 3375.93 2027.58C3353.82 2087.83 3321.5 2116.53 3256.81 2124.57C3081.71 2147.77 2987.05 2069.6 2970.57 1893.92C2953.29 1709.66 2993.87 1542.99 3199.91 1518.42Z" fill="#2A1E1B"/>
<path d="M3898.47 1523.86C3981.54 1511.76 4074.17 1559.17 4081 1650.85C4067.3 1685.43 4055.72 1691.94 4022.2 1703.47C4012.37 1701.74 3995.09 1697.71 3986.18 1694.27C3903.12 1662.25 3843.55 1692.28 3820.37 1778.24C3809.83 1823.06 3807.91 1876.65 3832.71 1916.31C3888.94 2006.25 3964.26 1920.91 4032.8 1934.32C4079.36 1943.43 4086.47 1991.19 4074.92 2033.85C4052.76 2094.2 4020.36 2122.94 3955.51 2131.01C3779.99 2154.24 3685.1 2075.94 3668.58 1899.98C3651.26 1715.41 3691.93 1548.47 3898.47 1523.86Z" fill="#2A1E1B"/>
<path fill-rule="evenodd" clip-rule="evenodd" d="M4564.78 1653.47C4546.18 1549.04 4460.88 1510.61 4363.77 1517.85C4307.63 1531.37 4271.85 1564.57 4242 1612.98C4220.34 1648.88 4202.78 1687.1 4189.65 1726.92C4169.82 1788.41 4124.92 2019.01 4138.52 2076.87C4144 2100.15 4154.63 2116.6 4175.14 2129.25C4190.32 2138.6 4205.3 2144.07 4223.04 2139.16C4256.48 2129.91 4279.59 2092.26 4294.67 2063.44C4321 2013.12 4342.44 1956.19 4360.96 1902.5L4371.52 1877.81C4371.81 1884.83 4372.02 1892.91 4372.24 1901.79C4374.37 1985.86 4378.29 2140.97 4474.98 2129.53C4536.13 2123.26 4546.28 2044.44 4553.34 1989.54C4554.2 1982.87 4555.02 1976.55 4555.87 1970.77C4570.94 1868.54 4583.1 1756.4 4564.78 1653.47ZM4389.06 1641.26C4457.25 1638.68 4442.16 1727.24 4434.08 1774.66C4433.65 1777.19 4433.23 1779.61 4432.86 1781.89C4419.99 1781.35 4407.09 1780.28 4394.23 1779.22C4391.45 1778.99 4388.65 1778.76 4385.87 1778.54C4383.09 1778.47 4380.19 1778.47 4377.26 1778.46C4353.47 1778.41 4326.66 1778.36 4329.12 1746.02C4332.23 1705.03 4353.12 1662.07 4389.06 1641.26Z" fill="#2A1E1B"/>
<path d="M4842.6 1927.31C4817.21 1978.4 4788.26 2118.35 4721.86 2131.07C4631.39 2148.4 4623.12 2007.36 4631.55 1947.13C4645.75 1838.75 4660.69 1773.38 4688.94 1664.27C4703.77 1606.97 4756.95 1479.65 4849.85 1534.36C4881.3 1552.88 4918.6 1703.57 4917.71 1746.29L4925.24 1762.18C4933.04 1691.64 4977.12 1471.91 5083.69 1546.47C5159.93 1599.8 5104.22 1842.88 5090.44 1923.8C5077.95 1997.08 5015.19 2207.38 4907.49 2114.92C4860.98 2074.99 4843.89 1985.83 4842.6 1927.31Z" fill="#2A1E1B"/>
<path fill-rule="evenodd" clip-rule="evenodd" d="M5493.17 1549.83C5450.91 1530.64 5372.64 1517.62 5325.63 1521.77C5257.54 1552.12 5246.98 1614.5 5235.73 1680.96C5234.56 1687.91 5233.37 1694.9 5232.12 1701.9C5227.64 1726.85 5223.03 1751.47 5218.45 1775.92C5202.95 1858.75 5187.78 1939.75 5179.09 2025.97C5166.96 2146.28 5258.28 2140.26 5345.44 2134.51C5374.48 2132.6 5403.05 2130.72 5427.18 2133.54C5446.47 2135.8 5481.84 2130.99 5501.5 2126.28C5568.26 2100.46 5591.19 2070.48 5622.53 2004.16C5693.61 1853.75 5656.78 1624.13 5493.17 1549.83ZM5381.36 1697.39C5385 1697.8 5388.63 1698.27 5392.26 1698.82C5484.07 1712.81 5505.3 1794.45 5493.19 1875.02C5488.51 1906.18 5474.28 1930.99 5447.82 1948.98C5416.6 1962.45 5388.08 1961.35 5355.93 1960.11C5350.84 1959.91 5345.66 1959.71 5340.36 1959.57C5341.52 1945.43 5344.41 1929.89 5347.28 1914.5C5349.31 1903.64 5351.32 1892.85 5352.69 1882.68C5361.05 1820.74 5370.63 1758.98 5381.36 1697.39Z" fill="#2A1E1B"/>
<path d="M5771.87 1522.35C5863.97 1519.34 5911.8 1624.43 5958.14 1691.43C5993.81 1643.52 6053.79 1515.42 6125.62 1522.26C6278.48 1536.83 6153.65 1704.84 6099.14 1758.35C6061.18 1795.64 6043.41 1811.89 6041.59 1866.06C6042.31 1917.67 6046.81 2051.97 6025.51 2092.77C5989.48 2161.67 5880.38 2147.44 5879.03 2041.43C5868.54 1982.98 5885.35 1894.64 5873.78 1839.72C5861.82 1782.95 5596.21 1564.58 5771.87 1522.35Z" fill="#2A1E1B"/>
</svg>
