<svg width="6146" height="1241" viewBox="0 0 6146 1241" fill="none" xmlns="http://www.w3.org/2000/svg">
<path fill-rule="evenodd" clip-rule="evenodd" d="M5130.74 408.614C5136.88 389.088 5142.94 369.857 5149.68 352.842C5197.72 230.076 5272.22 58.4393 5409.16 17.4901C5572.18 -31.2498 5689.3 109.585 5674.23 264.98C5652.07 493.251 5609.97 741.074 5551.21 963.552C5527.92 1051.73 5456.19 1197.94 5361.05 1223.59C5202.19 1264.12 5191.72 1077.36 5189.9 974.659C5188.71 968.63 5188.39 961.501 5188.07 954.285C5187.5 941.653 5186.93 928.754 5181.67 921.02L5180.39 925.612C5146.33 1047.26 5083.41 1271.95 4916.9 1221.62C4789.73 1183.18 4806.74 972.561 4815.47 864.457L4815.53 863.778C4815.8 860.427 4816.06 857.175 4816.31 854.032C4791.13 950.47 4729.61 1156.9 4642.23 1208.72C4613.46 1225.67 4579.18 1230.6 4546.79 1222.43C4518.44 1214.97 4496.62 1195.91 4482.06 1170.85C4413.05 1051.92 4502.19 648.311 4538.99 512.685C4554.76 454.945 4572.3 397.698 4591.54 341.026C4630.36 227.265 4671.85 117.663 4782.15 55.4545C4838.54 23.6453 4917.02 3.9917 4981.35 20.6435C5025.5 32.071 5051.25 62.7697 5072.81 100.011C5124.03 188.598 5117.14 277.478 5109.6 374.679C5109.31 378.397 5109.02 382.127 5108.73 385.869C5108.14 393.623 5107.63 401.437 5107.12 409.281C5105.19 439.027 5103.23 469.203 5096.58 498.118C5110.48 472.976 5120.73 440.397 5130.74 408.614ZM1011.84 65.5637C975.973 17.9604 920.089 7.8274 863.481 12.6768C808.657 25.7037 768.674 55.5743 739.216 103.168C704.841 158.707 673.678 306.113 652.949 404.164C648.26 426.342 644.105 445.998 640.568 461.491C630.723 461.786 621.469 462.154 612.56 462.508C578.469 463.864 549.425 465.019 511.63 461.077C515.378 432.037 522.13 401.253 529.049 369.706C550.789 270.587 574.182 163.933 511.246 80.144C485.612 46.0193 445.435 20.9607 402.672 15.4234C359.697 9.49184 316.153 21.2342 282 47.9646C211.865 102.679 184.936 219.764 165.443 304.52C164.971 306.574 164.503 308.609 164.038 310.623C145.5 391.083 124.385 471.055 103.266 551.037C66.0422 692.018 28.8084 833.035 5.66279 976.828C-16.3235 1116.37 21.3218 1260.89 196.597 1235.27C321.424 1204.71 355.267 1069.25 383.467 956.383C386.523 944.154 389.512 932.188 392.544 920.651C393.777 915.956 395.004 911.275 396.228 906.606L396.255 906.503C407.029 865.392 417.561 825.206 430.529 784.423L577.7 784.666C573.353 817.445 566.647 851.274 559.839 885.621C543.179 969.673 525.903 1056.83 541.066 1139.3C552.717 1202.67 602.613 1230.76 662.889 1238.72C856.518 1264.3 898.704 1033.15 925.364 887.083C926.173 882.65 926.968 878.295 927.752 874.028L964.696 669.685L1012.77 400.128C1015.12 386.849 1018.03 372.255 1021.12 356.751C1039.81 263.111 1065.12 136.271 1011.84 65.5637ZM3928.07 18.1321C3919.27 15.8875 3895.49 12.7725 3886.57 12.9654C3795.58 23.1014 3751.52 87.0151 3720.53 167.238C3695.37 232.369 3680.26 301.581 3665.27 370.182C3660.52 391.974 3655.77 413.704 3650.72 435.222C3647.7 449.705 3644.56 464.57 3641.36 479.716C3621.1 575.536 3598.46 682.615 3590.41 775.243C3586.97 814.55 3587.31 854.094 3591.45 893.333C3601.37 982.278 3627.25 1066.38 3693.25 1128.95C3807.91 1237.65 4028.93 1259 4165.08 1181.59C4346.47 1078.46 4397.64 850.152 4441.15 656.057L4441.15 656.038C4446.36 632.821 4451.45 610.094 4456.64 588.129C4459.17 576.818 4462.32 563.567 4465.84 548.766C4503.2 391.587 4582.12 59.5685 4393.5 19.2535C4357.88 11.7424 4320.77 18.4963 4290.11 38.062C4221.55 82.6295 4200.67 179.342 4183.33 259.621L4183.32 259.657C4180.6 272.263 4177.97 284.462 4175.25 295.991L4099.71 620.125C4098.01 627.25 4096.34 634.442 4094.66 641.671C4084.5 685.402 4074.03 730.477 4053.5 770.107C4035.11 805.608 3987.71 818.845 3963.75 781.976C3942.9 749.926 3950.84 701.006 3957.31 661.06C3958.57 653.286 3959.78 645.852 3960.71 638.948C3969.61 585.477 3980.36 534.421 3991.32 482.388C3996.25 458.957 4001.23 435.328 4006.1 411.191C4008.71 398.248 4011.85 384.125 4015.19 369.165C4043.27 243.219 4084.57 57.9698 3928.07 18.1321ZM1329.47 3.27736C1327.19 3.45048 1324.91 3.68503 1322.65 3.98044C1267.57 8.86304 1226.87 14.0636 1189.66 60.1235C1134.94 127.846 1118.24 224.357 1103.38 310.15C1101.83 319.139 1100.29 328.017 1098.73 336.725L1060.96 548.7L1010.76 828.714C1009.01 838.548 1007.01 849.414 1004.86 861.013C991.772 931.874 973.631 1030.05 978.848 1086.98C982.848 1127.06 1002.64 1163.89 1033.85 1189.35C1056.68 1208.09 1083.46 1221.41 1112.19 1228.3C1177.53 1244.11 1285.44 1239.11 1374.01 1235.01C1402.28 1233.7 1428.57 1232.48 1450.89 1232.06C1549.29 1230.21 1717.9 1172.62 1704.76 1048.01C1695.58 960.985 1614.44 905.201 1530.35 903.345C1490.8 898.21 1452.27 896.124 1413.78 894.039C1382.11 892.324 1350.46 890.61 1318.3 887.2C1320.73 876.797 1323.23 866.266 1325.75 855.66C1334.73 817.863 1343.94 779.125 1351.05 741.914C1358.17 742.272 1365.28 742.635 1372.4 742.997C1439.79 746.426 1507.32 749.862 1574.73 749.931C1628.13 749.986 1679.61 742.654 1721.41 706.493C1779.07 656.617 1786.35 550.285 1735.95 493.087C1701.89 454.468 1646.04 450.972 1597.82 449.278C1590.76 449.029 1583.72 448.786 1576.7 448.543C1520.09 446.587 1464.65 444.67 1407.62 440.44C1410.4 397.642 1419.86 353.262 1428.92 310.728C1429.9 306.138 1430.87 301.569 1431.83 297.026C1456.99 295.713 1487.86 297.37 1520.83 299.141C1610.88 303.976 1716.59 309.652 1764.4 257.944C1835.98 180.529 1793.58 33.5739 1680.18 18.1579C1570.26 3.21592 1438.81 -4.97033 1329.47 3.27736ZM3020.58 13.3978C2999.67 8.34943 2981.71 8.57546 2960.69 9.79938C2870.94 26.5604 2822.91 100.693 2841.1 189.562C2855.2 258.501 2890.89 320.898 2925.91 381.045C2932.64 392.806 2940.83 405.39 2949.31 418.427C2972.06 453.392 2996.93 491.62 3001.5 526.008C3005.32 554.936 2996.85 598.843 2990.51 631.752C2989.64 636.269 2988.81 640.579 2988.05 644.615C2977.73 700.603 2967.09 756.533 2956.11 812.392C2954.1 822.16 2951.8 832.687 2949.38 843.814C2924.84 956.503 2886.91 1130.71 2989.82 1200.14C3025.03 1223.89 3074.32 1233.65 3115.94 1225.22C3158.89 1216.53 3200.11 1181.17 3223.71 1145.18C3255.22 1097.09 3276.39 950.502 3290.41 853.39C3293.61 831.236 3296.44 811.656 3298.94 796.408C3300.49 787.777 3302.68 774.376 3305.32 758.153C3316.61 688.798 3336.3 567.877 3351.54 547.66C3390.98 495.398 3442.99 449.218 3495.28 402.784C3549.58 354.579 3604.18 306.1 3645.33 250.259C3702.54 173.626 3689.48 30.1923 3579.27 13.87C3457.89 -4.10951 3371.76 103.219 3295.84 197.834C3273.52 225.648 3252.08 252.363 3230.89 274.473C3223.88 263.121 3212.73 244.042 3199.66 221.673C3163.67 160.088 3113.12 73.5707 3094.29 54.7409C3074.01 34.4195 3048.5 20.1092 3020.58 13.3978ZM2004.04 12.7784C1984.23 8.28251 1970.24 8.82128 1950.45 9.79117C1909.42 15.7538 1873.58 30.3314 1848.26 65.3541C1780.78 159.775 1851.01 281.21 1902.73 370.627L1902.74 370.644C1906.55 377.242 1910.27 383.667 1913.82 389.893C1919.09 399.122 1927.56 411.21 1936.89 424.502C1958.78 455.728 1985.35 493.601 1985.87 516.669C1987.63 593.746 1966.32 694.639 1949.35 775.031C1947.48 783.859 1945.67 792.439 1943.95 800.714C1940.98 814.966 1937.66 829.659 1934.28 844.652C1906.94 965.798 1875.17 1106.53 1987.05 1192.95C2086.48 1267.37 2203.61 1186.54 2232.1 1082.13C2248.7 1021.31 2258.31 959.059 2267.93 896.835L2267.93 896.819C2273.53 860.545 2279.13 824.28 2286.12 788.31C2287.6 779.696 2289.49 767.684 2291.72 753.544L2291.72 753.527C2302.37 685.93 2320.66 569.734 2339.05 543.657C2369.53 500.424 2421.61 454.361 2475.03 407.115C2542.93 347.054 2613 285.082 2643.6 224.589C2658.05 195.374 2663.97 162.684 2660.7 130.262C2648.1 -3.48912 2509.49 -16.2857 2420.12 51.8891C2369.04 90.8488 2326.69 142.96 2284.8 194.516C2262.45 222.017 2240.23 249.363 2216.89 274.468C2208.72 261.48 2196.34 240.405 2182.12 216.204C2145.98 154.672 2097.97 72.9364 2077.12 52.5715C2056.94 32.7725 2031.63 18.9917 2004.04 12.7784ZM6134 314.183C6154.73 195.609 6168.52 -10.9274 5986.95 12.4621C5911.45 32.7695 5864.45 88.5745 5840.27 161.161C5778.2 347.639 5750.28 549.305 5748.18 745.485C5746.35 833.654 5756.03 982.867 5886.91 892.806C5913.68 869.839 5931.36 844.086 5950.97 815.017C6050.52 667.161 6103.53 488.422 6134 314.183ZM5786.94 1232.2C5949.51 1191.82 5955.17 939.583 5763.86 949.82C5725.13 957.624 5691.22 980.755 5669.82 1013.95C5647.9 1047.34 5639.1 1090.2 5647.59 1129.37C5654.72 1163.11 5675.02 1192.62 5704.01 1211.36C5730 1228.02 5756.52 1233.48 5786.94 1232.2Z" fill="white"/>
<path d="M5096.58 498.118C5119.02 457.528 5131.96 397.555 5149.68 352.842C5197.72 230.076 5272.22 58.4393 5409.16 17.4901C5572.18 -31.2498 5689.3 109.585 5674.23 264.98C5652.07 493.251 5609.97 741.074 5551.21 963.552C5527.92 1051.73 5456.19 1197.94 5361.05 1223.59C5202.19 1264.12 5191.72 1077.36 5189.9 974.659C5186.64 958.076 5189.93 933.171 5181.67 921.02C5181.25 922.534 5180.82 924.065 5180.39 925.612C5146.33 1047.26 5083.41 1271.95 4916.9 1221.62C4785.5 1181.9 4808.03 958.377 4816.31 854.032C4791.13 950.47 4729.61 1156.9 4642.23 1208.72C4613.46 1225.67 4579.18 1230.6 4546.79 1222.43C4518.44 1214.97 4496.62 1195.91 4482.06 1170.85C4413.05 1051.92 4502.19 648.311 4538.99 512.685C4554.76 454.945 4572.3 397.698 4591.54 341.026C4630.36 227.265 4671.85 117.663 4782.15 55.4545C4838.54 23.6453 4917.02 3.9917 4981.35 20.6435C5025.5 32.071 5051.25 62.7697 5072.81 100.011C5125.99 191.986 5116.52 284.278 5108.73 385.869C5105.9 423.025 5104.99 461.577 5096.58 498.118Z" fill="#2A1E1B"/>
<path d="M5181.67 921.02C5182.44 910.275 5184.23 896.241 5193.94 889.742C5192.45 919.505 5189.96 944.583 5189.9 974.659C5186.64 958.076 5189.93 933.171 5181.67 921.02Z" fill="#B3B3B1"/>
<path d="M863.481 12.6768C920.089 7.8274 975.973 17.9604 1011.84 65.5637C1073.94 147.978 1029.27 306.653 1012.77 400.128L964.696 669.685L927.752 874.028C901.125 1018.89 862.394 1265.08 662.889 1238.72C602.613 1230.76 552.717 1202.67 541.066 1139.3C519.707 1023.13 562.715 897.658 577.7 784.666L430.529 784.423C416.077 829.872 404.651 874.579 392.544 920.651C361.533 1038.67 334.949 1201.4 196.597 1235.27C21.3218 1260.89 -16.3235 1116.37 5.66279 976.828C41.9396 751.457 112.824 532.906 164.038 310.623C183.656 225.475 210.165 104.005 282 47.9646C316.153 21.2342 359.697 9.49184 402.672 15.4234C445.435 20.9607 485.612 46.0193 511.246 80.144C594.213 190.601 527.153 340.794 511.63 461.077C559.302 466.049 593.05 462.912 640.568 461.491C659.744 377.499 697.066 171.27 739.216 103.168C768.674 55.5743 808.657 25.7037 863.481 12.6768Z" fill="#2A1E1B"/>
<path d="M3886.57 12.9654C3895.49 12.7725 3919.27 15.8875 3928.07 18.1321C4103.15 62.7016 4030.67 289.277 4006.1 411.191C3990.42 488.931 3973.61 561.399 3960.71 638.948C3955.01 681.327 3938.85 743.688 3963.75 781.976C3987.71 818.845 4035.11 805.608 4053.5 770.107C4077.43 723.925 4087.69 670.35 4099.71 620.125L4175.25 295.991C4195.28 211.032 4210.78 89.6345 4290.11 38.062C4320.77 18.4963 4357.88 11.7424 4393.5 19.2535C4599.88 63.3648 4485.96 456.704 4456.64 588.129C4408.02 793.725 4368.17 1066.12 4165.08 1181.59C4028.93 1259 3807.91 1237.65 3693.25 1128.95C3627.25 1066.38 3601.37 982.278 3591.45 893.333C3587.31 854.094 3586.97 814.55 3590.41 775.243C3599.73 667.971 3628.62 541.329 3650.72 435.222C3671.67 345.964 3687.38 253.058 3720.53 167.238C3751.52 87.0151 3795.58 23.1014 3886.57 12.9654Z" fill="#2A1E1B"/>
<path d="M1322.65 3.98044C1324.91 3.68503 1327.19 3.45048 1329.47 3.27736C1438.81 -4.97033 1570.26 3.21592 1680.18 18.1579C1793.58 33.5739 1835.98 180.529 1764.4 257.944C1699.08 328.583 1525.71 292.127 1431.83 297.026C1421.98 343.664 1410.7 393.023 1407.62 440.44C1471.72 445.195 1533.82 447.027 1597.82 449.278C1646.04 450.972 1701.89 454.468 1735.95 493.087C1786.35 550.285 1779.07 656.617 1721.41 706.493C1679.61 742.654 1628.13 749.986 1574.73 749.931C1500.2 749.855 1425.53 745.662 1351.05 741.914C1341.94 789.566 1329.41 839.721 1318.3 887.2C1389.53 894.754 1458.26 893.984 1530.35 903.345C1614.44 905.201 1695.58 960.985 1704.76 1048.01C1717.9 1172.62 1549.29 1230.21 1450.89 1232.06C1358.64 1233.8 1198.38 1249.15 1112.19 1228.3C1083.46 1221.41 1056.68 1208.09 1033.85 1189.35C1002.64 1163.89 982.848 1127.06 978.848 1086.98C972.777 1020.74 998.336 898.63 1010.76 828.714L1060.96 548.7L1098.73 336.725C1115.15 244.902 1129.21 134.944 1189.66 60.1235C1226.87 14.0636 1267.57 8.86304 1322.65 3.98044Z" fill="#2A1E1B"/>
<path d="M2960.69 9.79938C2981.71 8.57546 2999.67 8.34943 3020.58 13.3978C3048.5 20.1092 3074.01 34.4195 3094.29 54.7409C3119.95 80.4101 3204.59 231.868 3230.89 274.473C3324.17 177.149 3422.21 -9.39485 3579.27 13.87C3689.48 30.1923 3702.54 173.626 3645.33 250.259C3564.53 359.889 3431.92 441.143 3351.54 547.66C3332.73 572.607 3307.16 750.877 3298.94 796.408C3285.51 878.493 3262.4 1086.12 3223.71 1145.18C3200.11 1181.17 3158.89 1216.53 3115.94 1225.22C3074.32 1233.65 3025.03 1223.89 2989.82 1200.14C2876.75 1123.86 2933.71 921.079 2956.11 812.392C2967.09 756.533 2977.73 700.603 2988.05 644.615C2994.3 611.18 3005.85 558.907 3001.5 526.008C2995.23 478.797 2950.69 424.349 2925.91 381.045C2890.89 320.898 2855.2 258.501 2841.1 189.562C2822.91 100.693 2870.94 26.5604 2960.69 9.79938Z" fill="#2A1E1B"/>
<path d="M1950.45 9.79117C1970.24 8.82128 1984.23 8.28251 2004.04 12.7784C2031.63 18.9917 2056.94 32.7725 2077.12 52.5715C2106.17 80.9465 2187.94 228.459 2216.89 274.468C2284 202.298 2341.79 111.631 2420.12 51.8891C2509.49 -16.2857 2648.1 -3.48912 2660.7 130.262C2663.97 162.684 2658.05 195.374 2643.6 224.589C2588.93 332.667 2408.28 445.464 2339.05 543.657C2316.82 575.191 2294.71 738.511 2286.12 788.31C2267.15 885.987 2258.38 985.844 2232.1 1082.13C2203.61 1186.54 2086.48 1267.37 1987.05 1192.95C1861.33 1095.84 1917 930.134 1943.95 800.714C1961.37 717.084 1987.82 602.209 1985.87 516.669C1985.12 483.781 1931.45 420.803 1913.82 389.893C1862.14 299.296 1775.8 166.749 1848.26 65.3541C1873.58 30.3314 1909.42 15.7538 1950.45 9.79117Z" fill="#2A1E1B"/>
<path d="M5986.95 12.4621C6168.52 -10.9274 6154.73 195.609 6134 314.183C6103.53 488.422 6050.52 667.161 5950.97 815.017C5931.36 844.086 5913.68 869.839 5886.91 892.806C5756.03 982.867 5746.35 833.654 5748.18 745.485C5750.28 549.305 5778.2 347.639 5840.27 161.161C5864.45 88.5745 5911.45 32.7695 5986.95 12.4621Z" fill="#2A1E1B"/>
<path d="M5763.86 949.82C5955.17 939.583 5949.51 1191.82 5786.94 1232.2C5756.52 1233.48 5730 1228.02 5704.01 1211.36C5675.02 1192.62 5654.72 1163.11 5647.59 1129.37C5639.1 1090.2 5647.9 1047.34 5669.82 1013.95C5691.22 980.755 5725.13 957.624 5763.86 949.82Z" fill="#2A1E1B"/>
</svg>
