<svg width="1926" height="1728" viewBox="0 0 1926 1728" fill="none" xmlns="http://www.w3.org/2000/svg">
<g clip-path="url(#clip0_823_27)">
<rect width="1926" height="1728" fill="white"/>
<g clip-path="url(#clip1_823_27)">
<rect width="413" height="1728" fill="white"/>
<rect width="413" height="1728" fill="#FF672D"/>
<path d="M328.6 318.4C347.267 325.333 356.6 359.467 356.6 420.8C356.6 436.267 355.533 454.4 353.4 475.2C351.267 496.533 348.6 506.4 345.4 504.8L11 338.4L-184.2 338.4C-193.267 338.4 -199.667 323.733 -203.4 294.4C-205.533 279.467 -206.6 264.8 -206.6 250.4C-206.6 236 -205.8 221.6 -204.2 207.2C-200.467 177.867 -193.8 163.2 -184.2 163.2L6.19999 163.2L343.8 -8.80001C347 -10.9333 349.933 -8.38338e-06 352.6 24C355.8 48 357.4 68.2667 357.4 84.8C357.4 150.4 347.8 186.4 328.6 192.8L165.4 251.2L328.6 318.4ZM339 793.787C349.667 793.787 355 822.587 355 880.188C355 938.321 349.667 967.388 339 967.388L-28.2 967.388C-82.6 967.388 -127.133 947.921 -161.8 908.987C-195.933 870.054 -213 816.187 -213 747.387C-213 679.121 -195.4 623.387 -160.2 580.187C-124.467 537.521 -76.4667 516.187 -16.2 516.187L338.2 516.187C348.867 516.187 354.2 544.987 354.2 602.588C354.2 660.721 348.867 689.787 338.2 689.787L-22.6 689.787C-33.2667 689.787 -41.8 695.387 -48.2 706.587C-54.6 718.321 -57.8 730.587 -57.8 743.387C-57.8 756.187 -54.8667 767.654 -49 777.787C-43.1334 788.454 -34.3334 793.787 -22.6 793.787L339 793.787ZM-205.8 1594.53C-205.8 1547.06 -200.467 1523.33 -189.8 1523.33L131 1506.53L-193.8 1408.93C-200.2 1406.8 -203.4 1388.66 -203.4 1354.53C-203.4 1320.4 -200.467 1302.8 -194.6 1301.73L134.2 1200.93L-185 1189.73C-193 1189.2 -198.6 1179.06 -201.8 1159.33C-204.467 1139.6 -205.8 1123.06 -205.8 1109.73C-205.8 1096.93 -205 1084.4 -203.4 1072.13C-199.667 1046.53 -193 1034 -183.4 1034.53L336.6 1052.93C349.4 1052.93 355.8 1085.46 355.8 1150.53C355.8 1169.73 354.2 1193.2 351 1220.93C348.333 1248.66 342.733 1264.13 334.2 1267.33L82.2 1356.93L335 1435.33C348.867 1440.13 355.8 1476.93 355.8 1545.73C355.8 1565.46 354.2 1588.93 351 1616.13C348.333 1643.86 343.267 1657.73 335.8 1657.73L-189 1680.93C-194.867 1680.93 -199.133 1670.53 -201.8 1649.73C-204.467 1628.93 -205.8 1610.53 -205.8 1594.53ZM-37.0001 1888.31C-40.2001 1888.31 -41.8001 1869.11 -41.8001 1830.71C-41.8001 1792.85 -40.4667 1773.91 -37.8001 1773.91L356.6 1757.91C360.867 1757.91 363 1782.18 363 1830.71C363 1879.78 361.133 1904.31 357.4 1904.31L-37.0001 1888.31ZM-85.0001 1756.31C-81.2667 1756.31 -79.4001 1780.85 -79.4001 1829.91C-79.4001 1879.51 -81.0001 1904.31 -84.2001 1904.31L-199.4 1904.31C-204.733 1904.31 -207.4 1879.51 -207.4 1829.91C-207.4 1780.85 -205.8 1756.31 -202.6 1756.31L-85.0001 1756.31Z" fill="#2A1E1B"/>
</g>
<g clip-path="url(#clip2_823_27)">
<rect width="413" height="1728" transform="translate(826)" fill="white"/>
<rect x="826" width="413" height="1728" fill="#C4C4C4"/>
<path d="M1154.6 318.4C1173.27 325.333 1182.6 359.467 1182.6 420.8C1182.6 436.267 1181.53 454.4 1179.4 475.2C1177.27 496.533 1174.6 506.4 1171.4 504.8L837 338.4L641.8 338.4C632.733 338.4 626.333 323.733 622.6 294.4C620.467 279.467 619.4 264.8 619.4 250.4C619.4 236 620.2 221.6 621.8 207.2C625.533 177.867 632.2 163.2 641.8 163.2L832.2 163.2L1169.8 -8.80001C1173 -10.9333 1175.93 -8.38338e-06 1178.6 24C1181.8 48 1183.4 68.2667 1183.4 84.8C1183.4 150.4 1173.8 186.4 1154.6 192.8L991.4 251.2L1154.6 318.4ZM1165 793.787C1175.67 793.787 1181 822.587 1181 880.188C1181 938.321 1175.67 967.388 1165 967.388L797.8 967.388C743.4 967.388 698.867 947.921 664.2 908.987C630.067 870.054 613 816.187 613 747.387C613 679.121 630.6 623.387 665.8 580.187C701.533 537.521 749.533 516.187 809.8 516.187L1164.2 516.187C1174.87 516.187 1180.2 544.987 1180.2 602.588C1180.2 660.721 1174.87 689.787 1164.2 689.787L803.4 689.787C792.733 689.787 784.2 695.387 777.8 706.587C771.4 718.321 768.2 730.587 768.2 743.387C768.2 756.187 771.133 767.654 777 777.787C782.867 788.454 791.667 793.787 803.4 793.787L1165 793.787ZM620.2 1594.53C620.2 1547.06 625.533 1523.33 636.2 1523.33L957 1506.53L632.2 1408.93C625.8 1406.8 622.6 1388.66 622.6 1354.53C622.6 1320.4 625.533 1302.8 631.4 1301.73L960.2 1200.93L641 1189.73C633 1189.2 627.4 1179.06 624.2 1159.33C621.533 1139.6 620.2 1123.06 620.2 1109.73C620.2 1096.93 621 1084.4 622.6 1072.13C626.333 1046.53 633 1034 642.6 1034.53L1162.6 1052.93C1175.4 1052.93 1181.8 1085.46 1181.8 1150.53C1181.8 1169.73 1180.2 1193.2 1177 1220.93C1174.33 1248.66 1168.73 1264.13 1160.2 1267.33L908.2 1356.93L1161 1435.33C1174.87 1440.13 1181.8 1476.93 1181.8 1545.73C1181.8 1565.46 1180.2 1588.93 1177 1616.13C1174.33 1643.86 1169.27 1657.73 1161.8 1657.73L637 1680.93C631.133 1680.93 626.867 1670.53 624.2 1649.73C621.533 1628.93 620.2 1610.53 620.2 1594.53ZM789 1888.31C785.8 1888.31 784.2 1869.11 784.2 1830.71C784.2 1792.85 785.533 1773.91 788.2 1773.91L1182.6 1757.91C1186.87 1757.91 1189 1782.18 1189 1830.71C1189 1879.78 1187.13 1904.31 1183.4 1904.31L789 1888.31ZM741 1756.31C744.733 1756.31 746.6 1780.85 746.6 1829.91C746.6 1879.51 745 1904.31 741.8 1904.31L626.6 1904.31C621.267 1904.31 618.6 1879.51 618.6 1829.91C618.6 1780.85 620.2 1756.31 623.4 1756.31L741 1756.31Z" fill="#2A1E1B"/>
</g>
<g clip-path="url(#clip3_823_27)">
<rect width="413" height="1728" transform="translate(413)" fill="white"/>
<rect x="413" width="413" height="1728" fill="#0592C1"/>
<path d="M741.6 318.4C760.267 325.333 769.6 359.467 769.6 420.8C769.6 436.267 768.533 454.4 766.4 475.2C764.267 496.533 761.6 506.4 758.4 504.8L424 338.4L228.8 338.4C219.733 338.4 213.333 323.733 209.6 294.4C207.467 279.467 206.4 264.8 206.4 250.4C206.4 236 207.2 221.6 208.8 207.2C212.533 177.867 219.2 163.2 228.8 163.2L419.2 163.2L756.8 -8.80001C760 -10.9333 762.933 -8.38338e-06 765.6 24C768.8 48 770.4 68.2667 770.4 84.8C770.4 150.4 760.8 186.4 741.6 192.8L578.4 251.2L741.6 318.4ZM752 793.787C762.667 793.787 768 822.587 768 880.188C768 938.321 762.667 967.388 752 967.388L384.8 967.388C330.4 967.388 285.867 947.921 251.2 908.987C217.067 870.054 200 816.187 200 747.387C200 679.121 217.6 623.387 252.8 580.187C288.533 537.521 336.533 516.187 396.8 516.187L751.2 516.187C761.867 516.187 767.2 544.987 767.2 602.588C767.2 660.721 761.867 689.787 751.2 689.787L390.4 689.787C379.733 689.787 371.2 695.387 364.8 706.587C358.4 718.321 355.2 730.587 355.2 743.387C355.2 756.187 358.133 767.654 364 777.787C369.867 788.454 378.667 793.787 390.4 793.787L752 793.787ZM207.2 1594.53C207.2 1547.06 212.533 1523.33 223.2 1523.33L544 1506.53L219.2 1408.93C212.8 1406.8 209.6 1388.66 209.6 1354.53C209.6 1320.4 212.533 1302.8 218.4 1301.73L547.2 1200.93L228 1189.73C220 1189.2 214.4 1179.06 211.2 1159.33C208.533 1139.6 207.2 1123.06 207.2 1109.73C207.2 1096.93 208 1084.4 209.6 1072.13C213.333 1046.53 220 1034 229.6 1034.53L749.6 1052.93C762.4 1052.93 768.8 1085.46 768.8 1150.53C768.8 1169.73 767.2 1193.2 764 1220.93C761.333 1248.66 755.733 1264.13 747.2 1267.33L495.2 1356.93L748 1435.33C761.867 1440.13 768.8 1476.93 768.8 1545.73C768.8 1565.46 767.2 1588.93 764 1616.13C761.333 1643.86 756.267 1657.73 748.8 1657.73L224 1680.93C218.133 1680.93 213.867 1670.53 211.2 1649.73C208.533 1628.93 207.2 1610.53 207.2 1594.53ZM376 1888.31C372.8 1888.31 371.2 1869.11 371.2 1830.71C371.2 1792.85 372.533 1773.91 375.2 1773.91L769.6 1757.91C773.867 1757.91 776 1782.18 776 1830.71C776 1879.78 774.133 1904.31 770.4 1904.31L376 1888.31ZM328 1756.31C331.733 1756.31 333.6 1780.85 333.6 1829.91C333.6 1879.51 332 1904.31 328.8 1904.31L213.6 1904.31C208.267 1904.31 205.6 1879.51 205.6 1829.91C205.6 1780.85 207.2 1756.31 210.4 1756.31L328 1756.31Z" fill="#2A1E1B"/>
</g>
<g clip-path="url(#clip4_823_27)">
<rect width="687" height="1728" transform="translate(1239)" fill="white"/>
<rect x="1239" width="687" height="1728" fill="#FDF2E2"/>
<path d="M1782.6 318.4C1801.27 325.333 1810.6 359.467 1810.6 420.8C1810.6 436.267 1809.53 454.4 1807.4 475.2C1805.27 496.533 1802.6 506.4 1799.4 504.8L1465 338.4L1269.8 338.4C1260.73 338.4 1254.33 323.733 1250.6 294.4C1248.47 279.467 1247.4 264.8 1247.4 250.4C1247.4 236 1248.2 221.6 1249.8 207.2C1253.53 177.867 1260.2 163.2 1269.8 163.2L1460.2 163.2L1797.8 -8.80001C1801 -10.9333 1803.93 -8.38338e-06 1806.6 24C1809.8 48 1811.4 68.2667 1811.4 84.8C1811.4 150.4 1801.8 186.4 1782.6 192.8L1619.4 251.2L1782.6 318.4ZM1793 793.787C1803.67 793.787 1809 822.587 1809 880.188C1809 938.321 1803.67 967.388 1793 967.388L1425.8 967.388C1371.4 967.388 1326.87 947.921 1292.2 908.987C1258.07 870.054 1241 816.187 1241 747.387C1241 679.121 1258.6 623.387 1293.8 580.187C1329.53 537.521 1377.53 516.187 1437.8 516.187L1792.2 516.187C1802.87 516.187 1808.2 544.987 1808.2 602.588C1808.2 660.721 1802.87 689.787 1792.2 689.787L1431.4 689.787C1420.73 689.787 1412.2 695.387 1405.8 706.587C1399.4 718.321 1396.2 730.587 1396.2 743.387C1396.2 756.187 1399.13 767.654 1405 777.787C1410.87 788.454 1419.67 793.787 1431.4 793.787L1793 793.787ZM1248.2 1594.53C1248.2 1547.06 1253.53 1523.33 1264.2 1523.33L1585 1506.53L1260.2 1408.93C1253.8 1406.8 1250.6 1388.66 1250.6 1354.53C1250.6 1320.4 1253.53 1302.8 1259.4 1301.73L1588.2 1200.93L1269 1189.73C1261 1189.2 1255.4 1179.06 1252.2 1159.33C1249.53 1139.6 1248.2 1123.06 1248.2 1109.73C1248.2 1096.93 1249 1084.4 1250.6 1072.13C1254.33 1046.53 1261 1034 1270.6 1034.53L1790.6 1052.93C1803.4 1052.93 1809.8 1085.46 1809.8 1150.53C1809.8 1169.73 1808.2 1193.2 1805 1220.93C1802.33 1248.66 1796.73 1264.13 1788.2 1267.33L1536.2 1356.93L1789 1435.33C1802.87 1440.13 1809.8 1476.93 1809.8 1545.73C1809.8 1565.46 1808.2 1588.93 1805 1616.13C1802.33 1643.86 1797.27 1657.73 1789.8 1657.73L1265 1680.93C1259.13 1680.93 1254.87 1670.53 1252.2 1649.73C1249.53 1628.93 1248.2 1610.53 1248.2 1594.53ZM1417 1888.31C1413.8 1888.31 1412.2 1869.11 1412.2 1830.71C1412.2 1792.85 1413.53 1773.91 1416.2 1773.91L1810.6 1757.91C1814.87 1757.91 1817 1782.18 1817 1830.71C1817 1879.78 1815.13 1904.31 1811.4 1904.31L1417 1888.31ZM1369 1756.31C1372.73 1756.31 1374.6 1780.85 1374.6 1829.91C1374.6 1879.51 1373 1904.31 1369.8 1904.31L1254.6 1904.31C1249.27 1904.31 1246.6 1879.51 1246.6 1829.91C1246.6 1780.85 1248.2 1756.31 1251.4 1756.31L1369 1756.31Z" fill="#2A1E1B"/>
</g>
</g>
<defs>
<clipPath id="clip0_823_27">
<rect width="1926" height="1728" fill="white"/>
</clipPath>
<clipPath id="clip1_823_27">
<rect width="413" height="1728" fill="white"/>
</clipPath>
<clipPath id="clip2_823_27">
<rect width="413" height="1728" fill="white" transform="translate(826)"/>
</clipPath>
<clipPath id="clip3_823_27">
<rect width="413" height="1728" fill="white" transform="translate(413)"/>
</clipPath>
<clipPath id="clip4_823_27">
<rect width="687" height="1728" fill="white" transform="translate(1239)"/>
</clipPath>
</defs>
</svg>
