<svg width="965" height="358" viewBox="0 0 965 358" fill="none" xmlns="http://www.w3.org/2000/svg">
<path d="M163.507 181.6C163.507 183.867 156.774 185 143.307 185C129.84 185 123.107 183.867 123.107 181.6V135.6H95.107V181.6C95.107 183.867 88.3737 185 74.907 185C61.4404 185 54.707 183.867 54.707 181.6V49C54.707 46.2 61.4404 44.8 74.907 44.8C88.3737 44.8 95.107 46.2 95.107 49V96H123.107V49.4C123.107 47.5333 126.44 46.2 133.107 45.4C136.574 45.1333 139.974 45 143.307 45L153.507 45.4C160.174 46.2 163.507 47.5333 163.507 49.4V181.6ZM248.418 100.6C250.951 100.6 252.218 105.267 252.218 114.6C252.218 117.4 251.885 120.733 251.218 124.6C250.685 128.333 249.618 130.2 248.018 130.2H222.618V150.2H259.418C261.685 150.2 263.218 153.133 264.018 159C264.418 161.533 264.618 164.267 264.618 167.2C264.618 170 264.218 173.667 263.418 178.2C262.618 182.733 261.285 185 259.418 185H191.018C185.951 185 183.418 182.933 183.418 178.8V50.2C183.418 46.7333 184.951 45 188.018 45H259.618C262.418 45 263.818 50.9333 263.818 62.8C263.818 74.5333 262.418 80.4 259.618 80.4H222.618V100.6H248.418ZM351.651 51.6C353.384 46.9333 361.917 44.6 377.251 44.6C381.117 44.6 385.651 44.8667 390.851 45.4C396.184 45.9333 398.651 46.6 398.251 47.4L356.651 131V179.8C356.651 182.067 352.984 183.667 345.651 184.6C341.917 185.133 338.251 185.4 334.651 185.4C331.051 185.4 327.451 185.2 323.851 184.8C316.517 183.867 312.851 182.2 312.851 179.8V132.2L269.851 47.8C269.317 47 272.051 46.2667 278.051 45.6C284.051 44.8 289.117 44.4 293.251 44.4C309.651 44.4 318.651 46.8 320.251 51.6L334.851 92.4L351.651 51.6ZM512.393 51.6C514.126 46.9333 522.66 44.6 537.993 44.6C541.86 44.6 546.393 44.8667 551.593 45.4C556.926 45.9333 559.393 46.6 558.993 47.4L517.393 131V179.8C517.393 182.067 513.726 183.667 506.393 184.6C502.66 185.133 498.993 185.4 495.393 185.4C491.793 185.4 488.193 185.2 484.593 184.8C477.26 183.867 473.593 182.2 473.593 179.8V132.2L430.593 47.8C430.06 47 432.793 46.2667 438.793 45.6C444.793 44.8 449.86 44.4 453.993 44.4C470.393 44.4 479.393 46.8 480.993 51.6L495.593 92.4L512.393 51.6ZM631.24 49C631.24 46.3333 638.44 45 652.84 45C667.373 45 674.64 46.3333 674.64 49V140.8C674.64 154.4 669.773 165.533 660.04 174.2C650.307 182.733 636.84 187 619.64 187C602.573 187 588.64 182.6 577.84 173.8C567.173 164.867 561.84 152.867 561.84 137.8V49.2C561.84 46.5333 569.04 45.2 583.44 45.2C597.973 45.2 605.24 46.5333 605.24 49.2V139.4C605.24 142.067 606.64 144.2 609.44 145.8C612.373 147.4 615.44 148.2 618.64 148.2C621.84 148.2 624.707 147.467 627.24 146C629.907 144.533 631.24 142.333 631.24 139.4V49ZM831.426 185.2C819.559 185.2 813.626 183.867 813.626 181.2L809.426 101L785.026 182.2C784.492 183.8 779.959 184.6 771.426 184.6C762.892 184.6 758.492 183.867 758.226 182.4L733.026 100.2L730.226 180C730.092 182 727.559 183.4 722.626 184.2C717.692 184.867 713.559 185.2 710.226 185.2C707.026 185.2 703.892 185 700.826 184.6C694.426 183.667 691.292 182 691.426 179.6L696.026 49.6C696.026 46.4 704.159 44.8 720.426 44.8C725.226 44.8 731.092 45.2 738.026 46C744.959 46.6667 748.826 48.0667 749.626 50.2L772.026 113.2L791.626 50C792.826 46.5333 802.026 44.8 819.226 44.8C824.159 44.8 830.026 45.2 836.826 46C843.759 46.6667 847.226 47.9333 847.226 49.8L853.026 181C853.026 182.467 850.426 183.533 845.226 184.2C840.026 184.867 835.426 185.2 831.426 185.2ZM904.871 143C904.871 143.8 900.071 144.2 890.471 144.2C881.004 144.2 876.271 143.867 876.271 143.2L872.271 44.6C872.271 43.5333 878.338 43 890.471 43C902.738 43 908.871 43.4667 908.871 44.4L904.871 143ZM871.871 155C871.871 154.067 878.004 153.6 890.271 153.6C902.671 153.6 908.871 154 908.871 154.8V183.6C908.871 184.933 902.671 185.6 890.271 185.6C878.004 185.6 871.871 185.2 871.871 184.4V155Z" fill="#2A1E1B"/>
<path d="M92.0534 286.15C81.3201 286.15 72.5418 282.623 65.7184 275.57C58.9718 268.517 55.5984 258.243 55.5984 244.75C55.5984 231.18 59.0101 220.907 65.8334 213.93C72.7334 206.953 81.5884 203.465 92.3984 203.465C103.285 203.465 112.063 206.915 118.733 213.815C125.403 220.638 128.738 231.027 128.738 244.98C128.738 258.857 125.327 269.207 118.503 276.03C111.68 282.777 102.863 286.15 92.0534 286.15ZM92.1684 225.545C88.4884 225.545 85.3834 227.232 82.8534 230.605C80.4001 233.978 79.1734 238.732 79.1734 244.865C79.1734 250.922 80.3618 255.598 82.7384 258.895C85.1151 262.115 88.2201 263.725 92.0534 263.725C95.9634 263.725 99.1068 262.077 101.483 258.78C103.937 255.483 105.163 250.768 105.163 244.635C105.163 238.502 103.898 233.787 101.368 230.49C98.9151 227.193 95.8484 225.545 92.1684 225.545ZM159.937 283.39C159.937 284.617 156.295 285.23 149.012 285.23C141.652 285.23 137.972 284.655 137.972 283.505V208.525C137.972 205.842 139.39 204.5 142.227 204.5H164.192C184.355 204.5 194.437 212.358 194.437 228.075C194.437 232.828 193.517 237.16 191.677 241.07C189.837 244.903 187.23 247.97 183.857 250.27L198.347 274.42C197.733 276.26 195.74 278.368 192.367 280.745C187.767 284.042 183.972 285.69 180.982 285.69C177.992 285.69 175.768 284.617 174.312 282.47L163.502 257.285H159.937V283.39ZM159.937 224.855V242.105H160.512C167.795 242.105 171.437 239.077 171.437 233.02C171.437 230.26 170.708 228.228 169.252 226.925C167.872 225.545 165.572 224.855 162.352 224.855H159.937ZM248.354 260.965L248.584 245.325C248.584 244.252 249.695 243.562 251.919 243.255C254.142 242.872 255.982 242.68 257.439 242.68L261.924 243.025C264.837 243.485 266.294 244.29 266.294 245.44L265.834 281.435C264.3 282.508 261.195 283.582 256.519 284.655C251.919 285.652 246.629 286.15 240.649 286.15C229.532 286.15 220.562 282.547 213.739 275.34C206.915 268.133 203.504 257.553 203.504 243.6C203.504 231.717 206.839 222.057 213.509 214.62C220.179 207.183 229.417 203.465 241.224 203.465C246.59 203.465 251.42 204.002 255.714 205.075C260.084 206.072 263.074 207.452 264.684 209.215C264.76 209.828 264.799 210.978 264.799 212.665C264.799 214.352 264.224 216.767 263.074 219.91C261.924 222.977 260.62 225.277 259.164 226.81C257.707 228.343 256.634 229.11 255.944 229.11C255.33 229.11 254.64 228.842 253.874 228.305C253.184 227.692 251.765 227.078 249.619 226.465C247.472 225.775 245.402 225.43 243.409 225.43C238.655 225.43 234.784 226.963 231.794 230.03C228.88 233.097 227.424 237.85 227.424 244.29C227.424 250.73 228.919 255.637 231.909 259.01C234.975 262.307 238.464 263.955 242.374 263.955C246.36 263.955 248.354 262.958 248.354 260.965ZM331.279 285.23C324.609 285.23 321.006 284.157 320.469 282.01L316.674 267.175H298.389L295.054 281.435C294.594 283.812 290.914 285 284.014 285C280.334 285 277.613 284.808 275.849 284.425C274.086 283.965 273.204 283.62 273.204 283.39L293.559 205.535C293.559 204.922 298.811 204.615 309.314 204.615C319.818 204.615 325.069 204.922 325.069 205.535L344.964 283.505C344.964 284.042 343.201 284.463 339.674 284.77C336.148 285.077 333.349 285.23 331.279 285.23ZM301.264 252.57H313.339L308.164 228.765H307.474L301.264 252.57ZM415.606 282.47C415.606 284.08 412.003 284.885 404.796 284.885C397.589 284.885 393.679 284.31 393.066 283.16L373.861 247.28V283.045C373.861 284.425 370.296 285.115 363.166 285.115C356.113 285.115 352.586 284.425 352.586 283.045V206.11C352.586 204.96 355.614 204.385 361.671 204.385C364.048 204.385 366.808 204.615 369.951 205.075C373.171 205.458 375.126 206.225 375.816 207.375L394.216 242.795V206.685C394.216 205.228 397.781 204.5 404.911 204.5C412.041 204.5 415.606 205.228 415.606 206.685V282.47ZM434.746 265.22V224.28H426.581C425.278 224.28 424.358 222.632 423.821 219.335C423.591 217.725 423.476 216.077 423.476 214.39C423.476 212.703 423.591 211.055 423.821 209.445C424.358 206.148 425.278 204.5 426.581 204.5H465.221C466.525 204.5 467.406 206.148 467.866 209.445C468.173 211.055 468.326 212.703 468.326 214.39C468.326 216.077 468.173 217.725 467.866 219.335C467.406 222.632 466.525 224.28 465.221 224.28H457.516V265.22H465.566C466.87 265.22 467.79 266.868 468.326 270.165C468.633 271.775 468.786 273.423 468.786 275.11C468.786 276.797 468.633 278.445 468.326 280.055C467.79 283.352 466.87 285 465.566 285H426.811C425.508 285 424.626 283.352 424.166 280.055C423.86 278.445 423.706 276.797 423.706 275.11C423.706 273.423 423.86 271.775 424.166 270.165C424.626 266.868 425.508 265.22 426.811 265.22H434.746ZM509.348 203.465C514.945 203.465 519.851 204.27 524.068 205.88C528.361 207.413 530.508 209.522 530.508 212.205C530.508 214.888 529.473 218.223 527.403 222.21C525.41 226.12 523.723 228.075 522.343 228.075C521.96 228.075 521.5 227.883 520.963 227.5C520.503 227.04 519.353 226.58 517.513 226.12C515.75 225.583 514.216 225.315 512.913 225.315C508.466 225.315 504.863 226.887 502.103 230.03C499.42 233.173 498.078 238.003 498.078 244.52C498.078 250.96 499.458 255.752 502.218 258.895C505.055 262.038 508.62 263.61 512.913 263.61C514.676 263.61 516.631 263.38 518.778 262.92C521.001 262.383 522.573 261.655 523.493 260.735C523.646 260.582 523.953 260.505 524.413 260.505C524.873 260.505 525.716 261.387 526.943 263.15C528.246 264.837 529.435 267.098 530.508 269.935C531.581 272.695 532.118 274.842 532.118 276.375C532.118 279.365 529.818 281.742 525.218 283.505C520.618 285.268 515.175 286.15 508.888 286.15C498.768 286.15 490.45 282.585 483.933 275.455C477.416 268.325 474.158 258.282 474.158 245.325C474.158 232.292 477.493 222.057 484.163 214.62C490.91 207.183 499.305 203.465 509.348 203.465ZM595.486 203.465C601.082 203.465 605.989 204.27 610.206 205.88C614.499 207.413 616.646 209.522 616.646 212.205C616.646 214.888 615.611 218.223 613.541 222.21C611.547 226.12 609.861 228.075 608.481 228.075C608.097 228.075 607.637 227.883 607.101 227.5C606.641 227.04 605.491 226.58 603.651 226.12C601.887 225.583 600.354 225.315 599.051 225.315C594.604 225.315 591.001 226.887 588.241 230.03C585.557 233.173 584.216 238.003 584.216 244.52C584.216 250.96 585.596 255.752 588.356 258.895C591.192 262.038 594.757 263.61 599.051 263.61C600.814 263.61 602.769 263.38 604.916 262.92C607.139 262.383 608.711 261.655 609.631 260.735C609.784 260.582 610.091 260.505 610.551 260.505C611.011 260.505 611.854 261.387 613.081 263.15C614.384 264.837 615.572 267.098 616.646 269.935C617.719 272.695 618.256 274.842 618.256 276.375C618.256 279.365 615.956 281.742 611.356 283.505C606.756 285.268 601.312 286.15 595.026 286.15C584.906 286.15 576.587 282.585 570.071 275.455C563.554 268.325 560.296 258.282 560.296 245.325C560.296 232.292 563.631 222.057 570.301 214.62C577.047 207.183 585.442 203.465 595.486 203.465ZM681.109 285.23C674.439 285.23 670.835 284.157 670.299 282.01L666.504 267.175H648.219L644.884 281.435C644.424 283.812 640.744 285 633.844 285C630.164 285 627.442 284.808 625.679 284.425C623.915 283.965 623.034 283.62 623.034 283.39L643.389 205.535C643.389 204.922 648.64 204.615 659.144 204.615C669.647 204.615 674.899 204.922 674.899 205.535L694.794 283.505C694.794 284.042 693.03 284.463 689.504 284.77C685.977 285.077 683.179 285.23 681.109 285.23ZM651.094 252.57H663.169L657.994 228.765H657.304L651.094 252.57ZM765.435 282.47C765.435 284.08 761.832 284.885 754.625 284.885C747.418 284.885 743.508 284.31 742.895 283.16L723.69 247.28V283.045C723.69 284.425 720.125 285.115 712.995 285.115C705.942 285.115 702.415 284.425 702.415 283.045V206.11C702.415 204.96 705.443 204.385 711.5 204.385C713.877 204.385 716.637 204.615 719.78 205.075C723 205.458 724.955 206.225 725.645 207.375L744.045 242.795V206.685C744.045 205.228 747.61 204.5 754.74 204.5C761.87 204.5 765.435 205.228 765.435 206.685V282.47ZM776.985 279.71V210.71C776.985 208.793 777.445 207.298 778.365 206.225C779.362 205.075 780.627 204.5 782.16 204.5H801.365C813.555 204.5 822.794 207.567 829.08 213.7C835.444 219.833 838.625 229.493 838.625 242.68C838.625 270.893 826.589 285 802.515 285H782.85C778.94 285 776.985 283.237 776.985 279.71ZM799.065 226.35V260.735C799.065 262.345 799.18 263.38 799.41 263.84C799.64 264.223 800.33 264.415 801.48 264.415C805.697 264.415 808.879 262.843 811.025 259.7C813.249 256.557 814.36 251.343 814.36 244.06C814.36 236.7 813.21 231.908 810.91 229.685C808.687 227.462 805.122 226.35 800.215 226.35H799.065ZM887.87 208.295C888.866 205.612 893.773 204.27 902.59 204.27C904.813 204.27 907.42 204.423 910.41 204.73C913.476 205.037 914.895 205.42 914.665 205.88L890.745 253.95V282.01C890.745 283.313 888.636 284.233 884.42 284.77C882.273 285.077 880.165 285.23 878.095 285.23C876.025 285.23 873.955 285.115 871.885 284.885C867.668 284.348 865.56 283.39 865.56 282.01V254.64L840.835 206.11C840.528 205.65 842.1 205.228 845.55 204.845C849 204.385 851.913 204.155 854.29 204.155C863.72 204.155 868.895 205.535 869.815 208.295L878.21 231.755L887.87 208.295Z" fill="#2A1E1B"/>
</svg>
